<svg id="a5697eee-7b15-4859-9699-04f8ed533f8b" data-name="Layer 1" xmlns="http://www.w3.org/2000/svg" viewBox="0 0 1024 1024"><defs><style>.ee612c08-c47a-4a24-8c55-15a5a119681c{fill:#1f1e21;fill-rule:evenodd;}</style></defs><path class="ee612c08-c47a-4a24-8c55-15a5a119681c" d="M911.2,491.53v99l-.74,7.44-1.12.37a87.7,87.7,0,0,1-22-2.6q-14.52-3.36-14.52-8.93,0-1.5.38-6.52c.24-3.35.37-5.52.37-6.51v-118l.74.37q2.61,0,13.4,3.35,13.77,3.72,14.52,4.46,6.33,1.5,8.37,4.84c1.37,2.23,1.8,5.59,1.31,10.05q0,3.36-.19,6.52a27.14,27.14,0,0,1-.56,4.65Zm33.5,147q6,0,19-12.28Q976.34,614,976.34,608.4q0-2.6-9.68-7.81-9.3-5.58-9.3-7.82V464.36q0-2.24,2.23-10.43t2.24-10.79q0-5.2-20.85-10.42-.75,0-26.05-6.7-20.85-5.58-23.46-5.59-5.58,0-13.77,4.47c-1.48,1-3.78,2.36-6.88,4.1s-5.15,2.85-6.14,3.35q-8.94,3.72-19.73,8.37t-12.28,5.4q-5.22,2.22-5.22,5.21v27.54q0,21.22.38,38.34t.37,38.34q0,21.21-1.49,37.22A101.68,101.68,0,0,0,824.48,611v2.61c0,1.73,1.11,3,3.35,3.72L890,638.55q3,1.13,25.68-18.24A324.3,324.3,0,0,1,944.7,638.55Zm-230-176.8V580.12q0,13,.37,23.82.38,10.42.38,23.45,0,19.35-.38,32.38a75.41,75.41,0,0,1-.37,8.19v6.33q-1.11,8.55-2.23,15.63h6.33q8.55-5.2,12.65-6.7,7.46-4.1,30.52-17.49l1.12-3.35q.75-3.74.75-126.56,0-20.48,1.11-58.06.75-16,.75-16.38h38.71l3-3.35c.49-5,.74-7.57.74-7.82v-22.7l-2.23-2.24q-2.24,0-16.38.75c-4.72.25-10.17.37-16.38.37q-8.57,0-8.56-5.21V392.52q0-17.13,1.12-23.08,5.21,1.49,15.63,12.28,9.68,8.56,16.38,8.57,3.72,0,17.86-13,13.79-12.66,13.78-17.12,0-5.22-17.13-14.52-13.4-7.81-22.7-10.8a35,35,0,0,0-6.7-.74q-.75,0-52.11,23.08-18.61,8.55-18.61,11.91,0,1.11,2.6,7.82a51.64,51.64,0,0,1,.75,8.56v33.49q0,16.76-14.52,37.23v4.46A67.77,67.77,0,0,0,714.67,461.75Zm-77,29.78v99l-.75,7.44-1.12.37a87.7,87.7,0,0,1-22-2.6q-14.52-3.36-14.51-8.93,0-1.5.37-6.52t.37-6.51v-118l.74.37q2.61,0,13.41,3.35Q628,463.24,628.69,464q6.33,1.5,8.38,4.84c1.36,2.23,1.8,5.59,1.3,10.05q0,3.36-.19,6.52a28.45,28.45,0,0,1-.55,4.65Zm33.49,147q6,0,19-12.28Q702.75,614,702.76,608.4q0-2.6-9.67-7.81-9.32-5.58-9.31-7.82V464.36q0-2.24,2.23-10.43t2.24-10.79q0-5.2-20.85-10.42-.75,0-26-6.7-20.85-5.58-23.45-5.59-5.58,0-13.78,4.47c-1.48,1-3.78,2.36-6.88,4.1s-5.15,2.85-6.14,3.35q-8.94,3.72-19.73,8.37t-12.28,5.4q-5.22,2.22-5.22,5.21v27.54q0,21.22.38,38.34t.37,38.34q0,21.21-1.49,37.22A101.68,101.68,0,0,0,550.9,611v2.61c0,1.73,1.11,3,3.35,3.72l62.16,21.21q3,1.13,25.68-18.24A322.86,322.86,0,0,1,671.12,638.55ZM472,599.84a154.23,154.23,0,0,1-19.36-3q-14.88-3.36-17.49-6,0-9.3-.38-17.12t-.37-17.87V528.75q0-10.43.37-18.61t.38-18.61l-.38-19q-.74-25.31,1.49-34.24,23.08,17.13,23.83,17.87l1.11,1.12a44,44,0,0,1,6.33,4.83c3,2.24,4.47,4.22,4.47,6Zm46.9,8.56q1.49-53.22,1.48-87.47V442.39a384.08,384.08,0,0,0-33.87-26.05q-27.54-24.93-29.77-26.8-38.34-33.87-43.93-44.29-3-8.94-6.32-8.94-4.47,0-25.69,21.22a38.19,38.19,0,0,0-3.72,3.35,38.19,38.19,0,0,1-3.72,3.35q-4.1,4.83-4.09,8.56V375L421,423.41l-1.49,1.49-31.26,16.38q-2.24,1.11-2.23,8.19,0,14.5.37,26t.37,26.06l-.37,70.72q0,9.68-.37,17.12V601.7a37.42,37.42,0,0,1-1.12,6.33,36.69,36.69,0,0,0-1.12,6.33q0,5.21,22,10.79c2.73.75,5.89,1.55,9.49,2.42s6.58,1.62,8.94,2.24a55.41,55.41,0,0,0,6.14,1.3q10.8,3.35,27.91,8.19,1.86.38,23.83-10.8,24.56-13,27.17-13.4Q518.89,611,518.89,608.4Zm-249-153q6,.75,18.61,4.47,13.41,3.35,13.4,3.72V614q0,3.35,15.26,14.14,14.89,10.43,20.1,10.42,7.45,0,35.37-30.52,0-4.1-9.31-8.93-12.29-6-12.66-6.7-.74-8.19-.74-14.15v-42.8q0-80.78,2.23-87.85c.5-1,1.24-2.48,2.24-4.46v-2.23q0-6.71-22.34-11.17-21.21-7.08-26-7.44-8.19-3.36-10.8-3.36-3.72,0-26.05,14.52-4.85-.73-15.26-8.19-10.8-7.81-14.15-7.81-4.83,0-19.72,13a181.8,181.8,0,0,0-18.24,18.61q0,4.85,8.93,9.31,9.31,4.47,9.31,7.44V596.49a46.57,46.57,0,0,1-1.49,8.56,48.41,48.41,0,0,0-1.49,8.19v3q24.57,14.14,34.61,21.59h4.84q27.18-27.16,27.18-31.27t-7.82-7.81q-7.44-4.47-7.44-6V555.55Q268.39,503.44,269.87,455.42ZM114.66,598.73c-5.21-.25-14.09-13.39-22-6.7L55.48,623.66c-16.07,13.66,32.63,14.15,41.31,14.15q7.08,0,20.1-8.19,3-1.86,19.73-12.65,26.43-15.65,30.89-20.1v-8.19q0-19-1.11-57.32T165.28,474V368.7q0-1.12,2.23-6.14c1.49-3.36,2.24-5.65,2.24-6.89q0-5.21-12.66-6.7a100.62,100.62,0,0,1-20.84-4.47q-14.9-2.6-19.73-3a10.17,10.17,0,0,1-2-.55q-1.66-.56-4.65-1.49c-2-.62-4.09-1.31-6.33-2.05a42.76,42.76,0,0,0-14.14-2.61q-5.59,0-11.54,6L47.66,371.3v5.21q1.86,0,8.93-.37t8.94-.37a68.29,68.29,0,0,1,10.79,1.12q3,.74,6.51,1.3c2.36.37,3.79.56,4.28.56q19.74,2.24,24.94,6.7c3.33,85.53.54,73,2.61,153.35q.74,29,.74,32.38Q115.4,586.08,114.66,598.73Z"/></svg>